<?xml version="1.0" encoding="UTF-8" standalone="no"?><!-- Generator: Gravit.io --><svg xmlns="http://www.w3.org/2000/svg" xmlns:xlink="http://www.w3.org/1999/xlink" style="isolation:isolate" viewBox="0 0 380 380" width="380pt" height="380pt"><defs><clipPath id="_clipPath_6iOW8fWrMpw2SgPeFY976ADcDKViSwh2"><rect width="380" height="550"/></clipPath></defs><g clip-path="url(#_clipPath_6iOW8fWrMpw2SgPeFY976ADcDKViSwh2)"><g><text transform="matrix(1.514,0,0,1.514,121.161,343.476)" style="font-family:'Open Sans';font-weight:700;font-size:14px;font-style:normal;font-variant-ligatures:none;fill:[Object GRGBColor];stroke:none;">#043250</text><text transform="matrix(1.514,0,0,1.514,121.161,404.048)" style="font-family:'Open Sans';font-weight:700;font-size:14px;font-style:normal;font-variant-ligatures:none;fill:[Object GRGBColor];stroke:none;">#000D2A</text><text transform="matrix(1.514,0,0,1.514,121.161,465.543)" style="font-family:'Open Sans';font-weight:700;font-size:14px;font-style:normal;font-variant-ligatures:none;fill:[Object GRGBColor];stroke:none;">#C89017</text><text transform="matrix(1.514,0,0,1.514,121.161,524.009)" style="font-family:'Open Sans';font-weight:700;font-size:14px;font-style:normal;font-variant-ligatures:none;fill:[Object GRGBColor];stroke:none;">#FFEDCB</text><path d=" M 24.346 310.035 L 90.296 310.035 C 95.987 310.035 100.64 314.69 100.64 320.379 L 100.64 350.122 C 100.64 355.813 95.987 360.468 90.296 360.468 L 24.346 360.468 C 18.655 360.468 14 355.813 14 350.122 L 14 320.379 C 14 314.69 18.655 310.035 24.346 310.035 Z " fill-rule="evenodd" fill="rgb(4,50,80)"/><path d=" M 24.346 370.608 L 90.296 370.608 C 95.987 370.608 100.64 375.263 100.64 380.952 L 100.64 410.695 C 100.64 416.385 95.987 421.04 90.296 421.04 L 24.346 421.04 C 18.655 421.04 14 416.385 14 410.695 L 14 380.952 C 14 375.263 18.655 370.608 24.346 370.608 Z " fill-rule="evenodd" fill="rgb(0,13,42)"/><path d=" M 24.346 432.103 L 90.296 432.103 C 95.987 432.103 100.64 436.757 100.64 442.447 L 100.64 472.189 C 100.64 477.88 95.987 482.535 90.296 482.535 L 24.346 482.535 C 18.655 482.535 14 477.88 14 472.189 L 14 442.447 C 14 436.757 18.655 432.103 24.346 432.103 Z " fill-rule="evenodd" fill="rgb(200,144,23)"/><path d=" M 24.344 490.569 L 90.296 490.569 C 95.987 490.569 100.64 495.224 100.64 500.915 L 100.64 530.656 C 100.64 536.345 95.987 541 90.296 541 L 24.344 541 C 18.655 541 14.002 536.345 14.002 530.656 L 14.002 500.915 C 14.002 495.224 18.655 490.569 24.344 490.569 Z " fill-rule="evenodd" fill="rgb(255,237,203)"/></g><clipPath id="_clipPath_h4tGLQZqYZM82ZKl78JuH5SRKGFhgqQY"><rect x="4" y="-1" width="372.331" height="552" transform="matrix(1,0,0,1,0,0)" fill="rgb(255,255,255)"/></clipPath><g clip-path="url(#_clipPath_h4tGLQZqYZM82ZKl78JuH5SRKGFhgqQY)"><path d=" M 80 236 L 80 240 L 83 240 L 83 263 L 87 263 L 87 242 L 96 255 L 104 242 L 104 263 L 108 263 L 108 236 L 104 236 L 96 249 L 87 236 L 80 236 Z  M 311 236 L 311 240 L 314 240 L 314 263 L 318 263 L 318 242 L 327 255 L 335 242 L 335 263 L 339 263 L 339 236 L 335 236 L 327 249 L 318 236 L 311 236 Z  M 116 236 L 116 240 L 119 240 L 119 263 L 123 263 L 123 251 L 133 251 L 133 247 L 123 247 L 123 240 L 131 240 L 131 243 L 135 243 L 135 236 L 116 236 Z  M 145 249 C 145 243.481 149.481 239 155 239 C 160.519 239 165 243.481 165 249 C 165 254.519 160.519 259 155 259 C 149.481 259 145 254.519 145 249 Z  M 141 249 C 141 241.273 147.273 235 155 235 C 162.727 235 169 241.273 169 249 C 169 256.727 162.727 263 155 263 C 147.273 263 141 256.727 141 249 Z  M 281 249 C 281 243.481 285.481 239 291 239 C 296.519 239 301 243.481 301 249 C 301 254.519 296.519 259 291 259 C 285.481 259 281 254.519 281 249 Z  M 277 249 C 277 241.273 283.273 235 291 235 C 298.727 235 305 241.273 305 249 C 305 256.727 298.727 263 291 263 C 283.273 263 277 256.727 277 249 Z  M 50 249 C 50 243.481 54.481 239 60 239 C 65.519 239 70 243.481 70 249 C 70 254.519 65.519 259 60 259 C 54.481 259 50 254.519 50 249 Z  M 46 249 C 46 241.273 52.273 235 60 235 C 67.727 235 74 241.273 74 249 C 74 256.727 67.727 263 60 263 C 52.273 263 46 256.727 46 249 Z  M 17 235 L 24 235 L 24 247 L 35 236 L 40 236 L 27 249 L 41 263 L 35 263 L 24 252 L 24 263 L 20 263 L 20 239 L 17 239 L 17 235 Z  M 175 240 L 175 236 L 190 236 Q 197.008 237.579 197 243 C 196.992 248.421 193.831 249.083 192 250 Q 197.179 255.608 200 263 L 195 263 Q 192.2 256.123 188 252 Q 185.658 252 182 252 L 182 263 L 178 263 L 178 240 L 175 240 Z  M 182 248 L 190 248 Q 193 246.735 193 244 Q 193 241.265 190 240 L 182 240 L 182 248 Z  M 210 240 L 210 243 L 206 243 L 206 236 L 227 236 L 227 243 L 223 243 L 223 240 L 219 240 L 219 263 L 215 263 L 215 240 L 210 240 Z  M 245 240 L 242 240 L 242 236 L 261 236 Q 269 239.122 269 250 Q 269 260.878 260 263 L 245 263 L 245 240 Z  M 250 240 L 250 259 L 259 259 Q 265 257.274 265 249 Q 265 240.726 259 240 L 250 240 Z " fill-rule="evenodd" fill="rgb(0,13,42)"/><g><path d=" M 214.756 218.571 C 215.432 219.023 216.3 219.571 217.419 220.189 C 218.51 220.794 219.884 221.427 221.519 222.041 C 223.152 222.652 225.105 223.169 227.353 223.59 C 229.621 224.014 232.286 224.214 235.3 224.214 C 239.24 224.214 242.644 223.662 245.458 222.56 C 248.283 221.455 250.661 220.005 252.54 218.165 C 254.407 216.339 255.913 214.331 257.059 212.154 C 258.187 210.009 259.029 207.836 259.591 205.739 C 260.153 203.628 260.549 201.737 260.743 200.083 C 260.934 198.454 261.007 197.216 261.001 196.429 C 260.976 193.493 260.646 190.868 260.007 188.556 C 259.365 186.232 258.543 184.213 257.475 182.45 C 256.429 180.722 255.272 179.193 254.014 177.907 C 252.772 176.637 251.515 175.559 250.297 174.659 C 249.08 173.757 247.926 173.001 246.931 172.379 C 244.884 171.105 243.129 169.936 241.643 168.9 C 240.149 167.857 238.976 166.803 238.183 165.732 C 237.374 164.64 236.965 163.374 236.965 161.963 C 236.965 161.141 237.15 160.261 237.511 159.36 C 237.886 158.423 238.512 157.623 239.335 156.887 C 240.145 156.166 241.19 155.653 242.477 155.43 C 243.915 155.18 245.393 155.35 246.866 155.835 C 248.341 156.321 249.749 157.042 251.129 157.997 C 252.504 158.948 253.758 160.01 254.943 161.165 C 256.128 162.322 257.186 163.42 258.084 164.485 C 258.084 160.355 258.084 156.228 258.084 152.102 C 258.084 147.984 258.084 143.846 258.084 139.706 C 256.706 138.179 254.983 136.847 252.988 135.705 C 251.009 134.572 248.759 133.8 246.227 133.405 C 243.727 133.015 241.031 133.102 238.119 133.739 C 234.751 134.478 231.68 135.84 228.891 137.67 C 226.074 139.516 223.642 141.783 221.583 144.459 C 219.51 147.149 217.897 150.191 216.777 153.581 C 215.656 156.967 215.071 160.644 215.046 164.634 C 215.041 165.326 215.077 166.253 215.143 167.409 C 215.205 168.553 215.417 169.809 215.75 171.225 C 216.089 172.654 216.633 174.134 217.385 175.686 C 218.139 177.243 219.26 178.786 220.623 180.359 C 221.981 181.929 223.752 183.462 225.908 184.914 C 228.045 186.351 229.86 187.538 231.326 188.591 C 232.807 189.654 233.973 190.605 234.851 191.435 C 235.733 192.269 236.393 193.05 236.773 193.827 C 237.161 194.624 237.35 195.46 237.35 196.371 C 237.35 197.007 237.187 197.734 236.838 198.603 C 236.482 199.482 235.798 200.283 234.786 200.973 C 233.746 201.682 232.256 202.12 230.268 202.233 C 228.41 202.341 226.585 202.106 224.787 201.597 C 222.997 201.09 221.26 200.387 219.596 199.447 C 217.927 198.504 216.295 197.436 214.756 196.199 C 214.756 199.933 214.756 203.667 214.756 207.39 C 214.756 211.113 214.756 214.849 214.756 218.571 L 214.756 218.571 Z  M 165.982 219.195 C 166.656 219.589 167.52 220.089 168.611 220.629 C 169.731 221.185 171.076 221.733 172.713 222.283 C 174.345 222.833 176.299 223.282 178.576 223.658 C 180.851 224.033 183.512 224.214 186.524 224.214 C 190.467 224.214 193.835 223.714 196.65 222.745 C 199.507 221.762 201.851 220.478 203.732 218.861 C 205.633 217.23 207.118 215.443 208.251 213.53 C 209.393 211.604 210.241 209.703 210.816 207.841 C 211.393 205.969 211.761 204.3 211.937 202.834 C 212.112 201.387 212.2 200.293 212.193 199.598 C 212.169 196.986 211.885 194.656 211.231 192.614 C 210.571 190.55 209.727 188.774 208.667 187.192 C 207.645 185.665 206.497 184.304 205.239 183.158 C 203.997 182.025 202.745 181.068 201.521 180.265 C 200.278 179.45 199.147 178.78 198.156 178.23 C 196.105 177.091 194.337 176.064 192.838 175.121 C 191.36 174.193 190.211 173.224 189.41 172.276 C 188.577 171.293 188.18 170.184 188.159 168.923 C 188.147 168.196 188.353 167.422 188.734 166.611 C 189.122 165.791 189.726 165.067 190.53 164.438 C 191.36 163.786 192.385 163.341 193.701 163.153 C 195.14 162.947 196.624 163.081 198.093 163.535 C 199.539 163.982 200.944 164.634 202.324 165.49 C 203.702 166.344 204.978 167.289 206.167 168.323 C 207.348 169.347 208.378 170.322 209.309 171.282 C 209.309 167.616 209.309 163.963 209.309 160.297 C 209.309 156.645 209.309 152.98 209.309 149.313 C 207.9 147.962 206.208 146.755 204.214 145.742 C 202.203 144.72 199.953 144.006 197.451 143.637 C 194.954 143.267 192.226 143.334 189.345 143.867 C 185.977 144.491 182.874 145.665 180.083 147.28 C 177.298 148.889 174.83 150.89 172.777 153.256 C 170.729 155.617 169.136 158.314 168 161.315 C 166.86 164.338 166.298 167.593 166.271 171.155 C 166.267 171.779 166.254 172.601 166.335 173.629 C 166.413 174.636 166.612 175.783 166.945 177.028 C 167.284 178.303 167.837 179.622 168.611 181.016 C 169.374 182.396 170.44 183.789 171.815 185.19 C 173.196 186.598 174.945 187.975 177.103 189.26 C 179.27 190.55 181.078 191.627 182.55 192.567 C 184.026 193.511 185.209 194.348 186.075 195.087 C 186.94 195.829 187.571 196.539 187.968 197.229 C 188.374 197.937 188.525 198.673 188.544 199.482 C 188.557 200.048 188.413 200.696 188.062 201.47 C 187.711 202.245 187.011 202.936 185.978 203.564 C 184.959 204.184 183.481 204.573 181.493 204.674 C 179.605 204.77 177.775 204.567 175.981 204.107 C 174.22 203.655 172.492 203.001 170.822 202.165 C 169.127 201.314 167.52 200.372 165.982 199.264 C 165.982 202.58 165.982 205.922 165.982 209.228 C 165.982 212.547 165.982 215.876 165.982 219.195 L 165.982 219.195 Z  M 127.944 203.934 C 125.927 204.02 124.203 203.651 122.753 202.916 C 121.287 202.173 120.092 201.16 119.164 199.853 C 118.234 198.544 117.53 197.042 117.08 195.366 C 116.632 193.688 116.408 191.922 116.408 190.082 C 116.408 188.302 116.598 186.556 117.015 184.82 C 117.431 183.098 118.104 181.501 119.003 180.058 C 119.928 178.575 121.122 177.379 122.592 176.404 C 124.067 175.425 125.827 174.804 127.944 174.577 C 130.026 174.353 131.823 174.612 133.295 175.304 C 134.769 175.999 135.967 176.999 136.884 178.348 C 137.793 179.681 138.458 181.237 138.871 182.959 C 139.289 184.705 139.481 186.509 139.481 188.37 C 139.481 190.302 139.253 192.198 138.807 194.001 C 138.359 195.817 137.654 197.471 136.725 198.926 C 135.797 200.384 134.599 201.549 133.135 202.441 C 131.684 203.328 129.931 203.849 127.944 203.934 L 127.944 203.934 Z  M 127.944 224.214 C 132.014 224.214 135.702 223.717 139.032 222.733 C 142.401 221.739 145.351 220.337 147.972 218.547 C 150.607 216.753 152.882 214.608 154.799 212.178 C 156.726 209.731 158.325 207.09 159.573 204.246 C 160.826 201.391 161.789 198.429 162.394 195.423 C 163.006 192.384 163.323 189.387 163.323 186.406 C 163.323 182.438 162.809 178.634 161.816 175.05 C 160.823 171.467 159.36 168.234 157.394 165.339 C 155.45 162.475 153.056 160.07 150.215 158.183 C 147.351 156.278 144.067 155.009 140.346 154.308 C 136.633 153.61 132.491 153.598 127.944 154.273 C 123.872 154.879 120.19 155.903 116.856 157.302 C 113.527 158.7 110.55 160.367 107.915 162.333 C 105.296 164.286 103.021 166.409 101.089 168.761 C 99.175 171.093 97.564 173.536 96.313 176.104 C 95.065 178.671 94.117 181.255 93.495 183.874 C 92.866 186.516 92.563 189.1 92.563 191.656 C 92.563 195.078 93.081 198.382 94.07 201.529 C 95.068 204.694 96.543 207.63 98.493 210.338 C 100.453 213.064 102.853 215.438 105.704 217.508 C 108.557 219.577 111.825 221.215 115.541 222.398 C 119.261 223.585 123.393 224.214 127.944 224.214 Z  M 88.611 223.496 C 88.611 213.021 88.611 202.535 88.611 192.047 C 88.611 181.572 88.611 171.085 88.611 160.597 C 80.661 161.512 72.714 162.39 64.8 163.223 C 64.8 166.842 64.8 170.451 64.8 174.069 C 64.8 177.676 64.8 181.283 64.8 184.891 C 56.692 185.411 48.616 185.897 40.54 186.347 C 40.54 182.879 40.54 179.397 40.54 175.919 C 40.54 172.45 40.54 168.968 40.54 165.49 C 32.593 166.149 24.645 166.762 16.731 167.339 C 16.731 176.716 16.731 186.092 16.731 195.46 C 16.731 204.824 16.731 214.201 16.731 223.578 C 24.645 223.565 32.593 223.565 40.54 223.555 C 40.54 219.913 40.54 216.27 40.54 212.628 C 40.54 208.987 40.54 205.333 40.54 201.69 C 48.616 201.414 56.692 201.123 64.8 200.823 C 64.8 204.603 64.8 208.395 64.8 212.178 C 64.8 215.959 64.8 219.751 64.8 223.531 C 72.714 223.52 80.661 223.508 88.611 223.496 Z " fill="rgb(4,50,80)"/><path d=" M 314.554 222.999 C 322.726 222.975 330.897 222.954 339.1 222.919 C 334.357 204.361 329.667 186.206 324.905 168.531 C 320.247 151.254 315.483 134.398 310.77 117.959 C 302.472 120.153 294.172 122.318 285.872 124.432 C 281.13 141.867 276.406 158.938 271.643 175.55 C 266.985 191.797 262.189 207.667 257.478 223.161 C 265.619 223.138 273.759 223.126 281.898 223.102 C 283.213 218.05 284.527 212.974 285.872 207.853 C 294.172 207.505 302.472 207.158 310.77 206.79 C 312.023 212.167 313.27 217.566 314.554 222.999 L 314.554 222.999 Z  M 298.369 154.749 C 299.587 159.79 300.809 164.865 302.023 169.974 C 303.244 175.109 304.492 180.265 305.741 185.468 C 300.742 185.944 295.775 186.428 290.808 186.902 C 292.058 181.631 293.31 176.325 294.558 170.982 C 295.809 165.617 297.087 160.194 298.369 154.749 Z " fill="rgb(0,13,42)"/></g><g><path d=" M 341.286 12.219 L 361.331 11 L 337.12 67.568 L 317.748 63.421 Q 341.195 12.637 341.286 12.219 Z  M 310.701 71.429 L 266.917 109.666 L 243.062 108.953 L 304.168 54 L 310.701 71.429 Z  M 159.573 27 L 186.075 27.443 L 246.227 69 L 232.529 81 L 159.573 27 Z  M 165.982 67 L 39 133.739 L 150.215 55.53 L 165.982 67 Z " fill-rule="evenodd" fill="rgb(255,237,203)"/><path d=" M 281.546 25.71 L 336.822 11.253 L 312.702 63.441 L 306.285 45.596 L 234.786 111.81 L 150.215 51.268 L -4 153.256 L 67 97 L 67 58 L 92.563 58 L 92 76 L 151.444 28 L 232.529 89 L 294.535 32.451 L 281.546 25.71 Z " fill-rule="evenodd" fill="rgb(200,144,23)"/></g></g></g></svg>